<?xml version="1.0" encoding="UTF-8" standalone="no"?>
<!-- Created with Inkscape (http://www.inkscape.org/) -->

<svg
   width="15.802113mm"
   height="20.278275mm"
   viewBox="0 0 15.802113 20.278275"
   version="1.1"
   id="svg5"
   xml:space="preserve"
   xmlns:inkscape="http://www.inkscape.org/namespaces/inkscape"
   xmlns:sodipodi="http://sodipodi.sourceforge.net/DTD/sodipodi-0.dtd"
   xmlns="http://www.w3.org/2000/svg"
   xmlns:svg="http://www.w3.org/2000/svg"><sodipodi:namedview
     id="namedview7"
     pagecolor="#ffffff"
     bordercolor="#000000"
     borderopacity="0.25"
     inkscape:showpageshadow="2"
     inkscape:pageopacity="0.0"
     inkscape:pagecheckerboard="0"
     inkscape:deskcolor="#d1d1d1"
     inkscape:document-units="mm"
     showgrid="false" /><defs
     id="defs2" /><g
     inkscape:groupmode="layer"
     id="layer2"
     inkscape:label="Calque 2"
     transform="translate(-48.000543,-81.762769)"><g
       id="g7848"><g
         id="g2789"
         transform="translate(-13.818546,11.910111)"
         style="stroke:#2d5275;stroke-width:0.3;stroke-dasharray:none;stroke-opacity:1"><path
           style="fill:none;stroke:#2d5275;stroke-width:0.3;stroke-linecap:round;stroke-linejoin:round;stroke-dasharray:none;stroke-opacity:1;paint-order:markers stroke fill"
           d="m 68.114936,85.025687 c 0,0 -1.813181,0.430558 -2.63493,0.117983 -1.265053,-0.481197 -2.335522,-1.606159 -2.910224,-2.831568 -0.714653,-1.52382 -0.715832,-3.382018 -0.393274,-5.033899 0.325829,-1.668632 2.280987,-4.56197 2.280987,-4.56197 l 1.651746,-2.713585 3.893407,2.005692 c 0,0 2.867089,1.426793 4.050715,2.477622 1.298315,1.152651 2.719329,2.429114 3.22484,4.090043 0.348368,1.144614 0.203397,2.482267 -0.275291,3.578788 -0.285782,0.654636 -0.885245,1.142429 -1.455111,1.573094 -0.739007,0.558489 -2.477622,1.258475 -2.477622,1.258475"
           id="path234"
           sodipodi:nodetypes="caaacccaaaac" /><path
           style="fill:none;stroke:#2d5275;stroke-width:0.3;stroke-dasharray:none;stroke-opacity:1"
           d="m 71.497086,89.98093 c -0.157308,0 -1.419408,-2.176535 -1.651749,-3.421478 -0.417425,-2.236672 0.550585,-6.803628 0.550585,-6.803628 0,0 -1.206419,0.07818 -1.651749,0.432602 -0.486322,0.387049 -0.818189,1.031986 -0.865201,1.651749 -0.03355,0.442313 0.432599,1.258475 0.432599,1.258475 l 1.455113,0.668562 c 0,0 1.919741,-0.157996 2.752913,-0.58991 0.823606,-0.426955 1.627749,-1.059157 2.04502,-1.887712 0.438874,-0.871453 0.638957,-1.989978 0.314619,-2.910221 -0.425213,-1.206456 -2.713585,-2.713585 -2.713585,-2.713585 l -2.084348,-1.179822 c 0,0 -1.701145,-1.206593 -2.202331,-2.084348 -0.233372,-0.408718 -0.314618,-1.376455 -0.314618,-1.376455 0,0 -0.450096,1.901718 -0.747221,2.831566 -0.520251,1.628118 -1.491524,3.11847 -1.809056,4.797935 -0.185103,0.979033 -0.276551,2.021149 -0.03933,2.988876 0.138246,0.563964 0.421834,1.116732 0.825876,1.533766 0.527248,0.544202 1.216085,1.034532 1.966364,1.140495 0.802788,0.113379 2.359642,-0.58991 2.359642,-0.58991"
           id="path1918"
           sodipodi:nodetypes="cacaaccaaaccacaaaaac" /><path
           style="fill:none;stroke:#2d5275;stroke-width:0.3;stroke-dasharray:none;stroke-opacity:1"
           d="m 65.003306,78.805222 c 0.07865,-0.196638 2.875666,-4.240605 2.875666,-4.240605 0,0 2.88405,1.832846 4.129368,2.988879 0.402257,0.373416 0.747671,0.808417 1.061839,1.258472 0.234672,0.336174 0.553345,0.662402 0.608994,1.068588 0.0694,0.506516 -0.143268,1.03098 -0.373033,1.487689 -0.404639,0.804311 -1.712137,2.089122 -1.712137,2.089122"
           id="path2781"
           sodipodi:nodetypes="ccaaaac" /><path
           style="fill:none;stroke:#2d5275;stroke-width:0.3;stroke-dasharray:none;stroke-opacity:1"
           d="m 70.041975,84.278469 c 1.92704,0.196636 2.695051,0.115035 3.81475,-0.511257 0.959544,-0.536711 1.747305,-1.509764 2.08435,-2.556275 0.330147,-1.025091 0.139354,-2.201652 -0.196638,-3.224842 -0.316509,-0.963859 -1.651746,-2.556277 -1.651746,-2.556277 l -2.320314,-2.988876 c 0,0 -2.724895,2.821464 -3.736097,4.483317 -0.421439,0.692611 -0.800426,1.443691 -0.943856,2.241656 -0.162488,0.903993 -0.236636,1.905652 0.117983,2.752912 0.21932,0.524002 1.161555,1.246957 1.161555,1.246957 0,0 -1.676752,-0.455839 -2.376749,-0.941879 -0.464908,-0.322807 -1.137698,-1.26045 -1.137698,-1.26045"
           id="path2783"
           sodipodi:nodetypes="caaaccaaacac" /></g><path
         style="fill:#c1d48a;fill-opacity:1;stroke:#2d5275;stroke-width:0.0993103;stroke-linecap:round;stroke-linejoin:round;stroke-dasharray:none;stroke-opacity:1;paint-order:markers stroke fill"
         d="m 220.75024,358.56043 c 3.91223,-4.119 5.85281,-7.70465 5.85281,-10.81438 0,-1.06229 -0.11953,-1.68218 -0.44963,-2.33192 -0.74589,-1.46813 -3.93288,-5.61031 -5.52808,-7.18493 -1.45368,-1.43492 -5.57315,-4.65949 -9.10498,-7.12704 l -1.73455,-1.21186 1.1984,-1.45673 c 0.65913,-0.8012 1.28311,-1.45673 1.38664,-1.45673 0.32848,0 7.93488,4.38355 9.27141,5.3431 0.70519,0.50628 2.19038,1.68141 3.30042,2.61139 4.93118,4.1313 6.453,7.10099 5.90151,11.51625 -0.26268,2.10302 -1.09233,4.69178 -2,6.2406 -1.36455,2.32843 -4.66017,5.13197 -7.59934,6.46465 -0.74756,0.33896 -1.42297,0.61629 -1.50091,0.61629 -0.0779,0 0.37489,-0.54391 1.0063,-1.20869 z"
         id="path6070"
         transform="scale(0.26458333)" /><path
         style="fill:#c1d48a;fill-opacity:1;stroke:#2d5275;stroke-width:0.0993103;stroke-linecap:round;stroke-linejoin:round;stroke-dasharray:none;stroke-opacity:1;paint-order:markers stroke fill"
         d="m 202.29249,357.6716 c -2.2186,-0.78924 -4.68775,-2.08833 -5.6578,-2.97674 -0.55048,-0.50415 -1.55295,-1.60863 -2.22771,-2.45441 l -1.22683,-1.53777 v -1.55524 c 0,-0.85539 0.10962,-2.51932 0.24361,-3.69763 l 0.24362,-2.14239 1.67754,-2.53893 c 1.19065,-1.80202 8.50255,-12.53489 9.0683,-13.31103 0.10752,-0.14751 3.79249,2.51775 3.77346,2.72926 -0.0128,0.1422 -0.66109,1.10988 -1.44065,2.1504 -4.45292,5.94354 -6.22382,10.71648 -6.23943,16.81655 -0.01,3.78076 0.62458,5.8101 2.45071,7.84119 1.06357,1.18294 0.98448,1.26345 -0.66482,0.67674 z"
         id="path6072"
         transform="scale(0.26458333)" /><path
         style="fill:#98b92e;fill-opacity:1;stroke:#2d5275;stroke-width:0.0993103;stroke-linecap:round;stroke-linejoin:round;stroke-dasharray:none;stroke-opacity:1;paint-order:markers stroke fill"
         d="m 212.19779,359.71657 c 0.27701,-2.59403 1.18698,-8.68736 1.66147,-11.12547 l 0.48369,-2.48543 h -0.92074 c -1.40074,0 -4.03112,0.59013 -5.25941,1.17994 -1.3121,0.63007 -2.4135,1.83641 -3.23012,3.53789 -1.1136,2.32029 -1.24372,3.88216 -0.50885,6.10783 0.31705,0.96022 -2.01853,-1.9315 -2.41423,-2.9891 -1.23406,-3.29834 -0.78234,-9.56156 0.97951,-13.58121 0.97332,-2.22062 2.74872,-5.19708 4.50676,-7.55559 l 1.68787,-2.26439 1.72027,1.20133 c 4.90922,3.42828 8.80497,6.58264 10.28012,8.32373 1.37935,1.62802 3.8472,4.99104 4.25546,5.79904 0.45653,0.90356 0.4537,2.78134 -0.006,4.14171 -0.95069,2.81177 -2.70929,5.25297 -7.23507,10.04334 -0.19626,0.20774 -4.41976,0.96402 -5.43696,0.97357 l -0.70382,0.007 z"
         id="path6352"
         transform="scale(0.26458333)" /><path
         style="fill:#d2dfa6;fill-opacity:1;stroke:#2d5275;stroke-width:0.0993103;stroke-linecap:round;stroke-linejoin:round;stroke-dasharray:none;stroke-opacity:1;paint-order:markers stroke fill"
         d="m 194.54523,339.79947 c 0.22922,-1.1041 1.22178,-3.62722 3.27778,-8.33223 2.2442,-5.13572 2.8922,-6.9615 4.18586,-11.79398 l 0.99914,-3.73228 0.23717,0.94593 c 0.13045,0.52027 0.44917,1.3716 0.70827,1.89187 0.59584,1.1964 3.52035,4.25709 5.78049,6.04966 0.95382,0.75649 1.73421,1.4342 1.73421,1.50601 0,0.18851 -2.31872,2.95467 -2.47673,2.95467 -0.0729,0 -1.15802,-0.678 -2.41129,-1.50666 -1.94995,-1.28931 -2.31961,-1.46368 -2.56245,-1.20869 -0.15607,0.16388 -2.38559,3.37225 -4.95448,7.1297 -3.32425,4.86228 -4.62668,6.61963 -4.51797,6.096 z"
         id="path7460"
         transform="scale(0.26458333)" /><path
         style="fill:#d2dfa6;fill-opacity:1;stroke:#2d5275;stroke-width:0.140446;stroke-linecap:round;stroke-linejoin:round;stroke-dasharray:none;stroke-opacity:1;paint-order:markers stroke fill"
         d="m 203.0195,362.99547 c -3.15639,-0.8052 -6.81882,-3.91704 -8.30336,-7.05509 -1.2719,-2.68857 -1.11677,-2.9743 0.66947,-1.23304 1.83995,1.79362 4.02833,2.9406 8.10081,4.24582 1.63503,0.52403 3.94719,1.37594 5.13813,1.89314 l 2.16536,0.94037 -2.01672,0.62897 c -2.72275,0.84916 -4.13858,0.99184 -5.75369,0.57983 z"
         id="path7462"
         transform="scale(0.26458333)" /><g
         id="g7473"
         transform="translate(-13.818546,11.910111)"
         style="stroke:#2d5275;stroke-width:0.3;stroke-dasharray:none;stroke-opacity:1"><path
           style="fill:none;stroke:#2d5275;stroke-width:0.3;stroke-linecap:round;stroke-linejoin:round;stroke-dasharray:none;stroke-opacity:1;paint-order:markers stroke fill"
           d="m 68.114936,85.025687 c 0,0 -1.813181,0.430558 -2.63493,0.117983 -1.265053,-0.481197 -2.335522,-1.606159 -2.910224,-2.831568 -0.714653,-1.52382 -0.715832,-3.382018 -0.393274,-5.033899 0.325829,-1.668632 2.280987,-4.56197 2.280987,-4.56197 l 1.651746,-2.713585 3.893407,2.005692 c 0,0 2.867089,1.426793 4.050715,2.477622 1.298315,1.152651 2.719329,2.429114 3.22484,4.090043 0.348368,1.144614 0.203397,2.482267 -0.275291,3.578788 -0.285782,0.654636 -0.885245,1.142429 -1.455111,1.573094 -0.739007,0.558489 -2.477622,1.258475 -2.477622,1.258475"
           id="path7465"
           sodipodi:nodetypes="caaacccaaaac" /><path
           style="fill:none;stroke:#2d5275;stroke-width:0.3;stroke-dasharray:none;stroke-opacity:1"
           d="m 71.497086,89.98093 c -0.157308,0 -1.419408,-2.176535 -1.651749,-3.421478 -0.417425,-2.236672 0.550585,-6.803628 0.550585,-6.803628 0,0 -1.206419,0.07818 -1.651749,0.432602 -0.486322,0.387049 -0.818189,1.031986 -0.865201,1.651749 -0.03355,0.442313 0.432599,1.258475 0.432599,1.258475 l 1.455113,0.668562 c 0,0 1.919741,-0.157996 2.752913,-0.58991 0.823606,-0.426955 1.627749,-1.059157 2.04502,-1.887712 0.438874,-0.871453 0.638957,-1.989978 0.314619,-2.910221 -0.425213,-1.206456 -2.713585,-2.713585 -2.713585,-2.713585 l -2.084348,-1.179822 c 0,0 -1.701145,-1.206593 -2.202331,-2.084348 -0.233372,-0.408718 -0.314618,-1.376455 -0.314618,-1.376455 0,0 -0.450096,1.901718 -0.747221,2.831566 -0.520251,1.628118 -1.491524,3.11847 -1.809056,4.797935 -0.185103,0.979033 -0.276551,2.021149 -0.03933,2.988876 0.138246,0.563964 0.421834,1.116732 0.825876,1.533766 0.527248,0.544202 1.216085,1.034532 1.966364,1.140495 0.802788,0.113379 2.359642,-0.58991 2.359642,-0.58991"
           id="path7467"
           sodipodi:nodetypes="cacaaccaaaccacaaaaac" /><path
           style="fill:none;stroke:#2d5275;stroke-width:0.3;stroke-dasharray:none;stroke-opacity:1"
           d="m 65.003306,78.805222 c 0.07865,-0.196638 2.875666,-4.240605 2.875666,-4.240605 0,0 2.88405,1.832846 4.129368,2.988879 0.402257,0.373416 0.747671,0.808417 1.061839,1.258472 0.234672,0.336174 0.553345,0.662402 0.608994,1.068588 0.0694,0.506516 -0.143268,1.03098 -0.373033,1.487689 -0.404639,0.804311 -1.712137,2.089122 -1.712137,2.089122"
           id="path7469"
           sodipodi:nodetypes="ccaaaac" /><path
           style="fill:none;stroke:#2d5275;stroke-width:0.3;stroke-dasharray:none;stroke-opacity:1"
           d="m 70.041975,84.278469 c 1.92704,0.196636 2.695051,0.115035 3.81475,-0.511257 0.959544,-0.536711 1.747305,-1.509764 2.08435,-2.556275 0.330147,-1.025091 0.139354,-2.201652 -0.196638,-3.224842 -0.316509,-0.963859 -1.651746,-2.556277 -1.651746,-2.556277 l -2.320314,-2.988876 c 0,0 -2.724895,2.821464 -3.736097,4.483317 -0.421439,0.692611 -0.800426,1.443691 -0.943856,2.241656 -0.162488,0.903993 -0.236636,1.905652 0.117983,2.752912 0.21932,0.524002 1.161555,1.246957 1.161555,1.246957 0,0 -1.676752,-0.455839 -2.376749,-0.941879 -0.464908,-0.322807 -1.137698,-1.26045 -1.137698,-1.26045"
           id="path7471"
           sodipodi:nodetypes="caaaccaaacac" /></g><path
         style="fill:#c1d48a;fill-opacity:1;stroke:#2d5275;stroke-width:0.0993103;stroke-linecap:round;stroke-linejoin:round;stroke-dasharray:none;stroke-opacity:1;paint-order:markers stroke fill"
         d="m 220.75024,358.56043 c 3.91223,-4.119 5.85281,-7.70465 5.85281,-10.81438 0,-1.06229 -0.11953,-1.68218 -0.44963,-2.33192 -0.74589,-1.46813 -3.93288,-5.61031 -5.52808,-7.18493 -1.45368,-1.43492 -5.57315,-4.65949 -9.10498,-7.12704 l -1.73455,-1.21186 1.1984,-1.45673 c 0.65913,-0.8012 1.28311,-1.45673 1.38664,-1.45673 0.32848,0 7.93488,4.38355 9.27141,5.3431 0.70519,0.50628 2.19038,1.68141 3.30042,2.61139 4.93118,4.1313 6.453,7.10099 5.90151,11.51625 -0.26268,2.10302 -1.09233,4.69178 -2,6.2406 -1.36455,2.32843 -4.66017,5.13197 -7.59934,6.46465 -0.74756,0.33896 -1.42297,0.61629 -1.50091,0.61629 -0.0779,0 0.37489,-0.54391 1.0063,-1.20869 z"
         id="path7475"
         transform="scale(0.26458333)" /><path
         style="fill:#c1d48a;fill-opacity:1;stroke:#2d5275;stroke-width:0.0993103;stroke-linecap:round;stroke-linejoin:round;stroke-dasharray:none;stroke-opacity:1;paint-order:markers stroke fill"
         d="m 202.29249,357.6716 c -2.2186,-0.78924 -4.68775,-2.08833 -5.6578,-2.97674 -0.55048,-0.50415 -1.55295,-1.60863 -2.22771,-2.45441 l -1.22683,-1.53777 v -1.55524 c 0,-0.85539 0.10962,-2.51932 0.24361,-3.69763 l 0.24362,-2.14239 1.67754,-2.53893 c 1.19065,-1.80202 8.50255,-12.53489 9.0683,-13.31103 0.10752,-0.14751 3.79249,2.51775 3.77346,2.72926 -0.0128,0.1422 -0.66109,1.10988 -1.44065,2.1504 -4.45292,5.94354 -6.22382,10.71648 -6.23943,16.81655 -0.01,3.78076 0.62458,5.8101 2.45071,7.84119 1.06357,1.18294 0.98448,1.26345 -0.66482,0.67674 z"
         id="path7477"
         transform="scale(0.26458333)" /><path
         style="fill:#98b92e;fill-opacity:1;stroke:#2d5275;stroke-width:0.0993103;stroke-linecap:round;stroke-linejoin:round;stroke-dasharray:none;stroke-opacity:1;paint-order:markers stroke fill"
         d="m 212.19779,359.71657 c 0.27701,-2.59403 1.18698,-8.68736 1.66147,-11.12547 l 0.48369,-2.48543 h -0.92074 c -1.40074,0 -4.03112,0.59013 -5.25941,1.17994 -1.3121,0.63007 -2.4135,1.83641 -3.23012,3.53789 -1.1136,2.32029 -1.24372,3.88216 -0.50885,6.10783 0.31705,0.96022 -2.01853,-1.9315 -2.41423,-2.9891 -1.23406,-3.29834 -0.78234,-9.56156 0.97951,-13.58121 0.97332,-2.22062 2.74872,-5.19708 4.50676,-7.55559 l 1.68787,-2.26439 1.72027,1.20133 c 4.90922,3.42828 8.80497,6.58264 10.28012,8.32373 1.37935,1.62802 3.8472,4.99104 4.25546,5.79904 0.45653,0.90356 0.4537,2.78134 -0.006,4.14171 -0.95069,2.81177 -2.70929,5.25297 -7.23507,10.04334 -0.19626,0.20774 -4.41976,0.96402 -5.43696,0.97357 l -0.70382,0.007 z"
         id="path7479"
         transform="scale(0.26458333)" /><path
         style="fill:#d2dfa6;fill-opacity:1;stroke:#2d5275;stroke-width:0.0993103;stroke-linecap:round;stroke-linejoin:round;stroke-dasharray:none;stroke-opacity:1;paint-order:markers stroke fill"
         d="m 194.54523,339.79947 c 0.22922,-1.1041 1.22178,-3.62722 3.27778,-8.33223 2.2442,-5.13572 2.8922,-6.9615 4.18586,-11.79398 l 0.99914,-3.73228 0.23717,0.94593 c 0.13045,0.52027 0.44917,1.3716 0.70827,1.89187 0.59584,1.1964 3.52035,4.25709 5.78049,6.04966 0.95382,0.75649 1.73421,1.4342 1.73421,1.50601 0,0.18851 -2.31872,2.95467 -2.47673,2.95467 -0.0729,0 -1.15802,-0.678 -2.41129,-1.50666 -1.94995,-1.28931 -2.31961,-1.46368 -2.56245,-1.20869 -0.15607,0.16388 -2.38559,3.37225 -4.95448,7.1297 -3.32425,4.86228 -4.62668,6.61963 -4.51797,6.096 z"
         id="path7481"
         transform="scale(0.26458333)" /><path
         style="fill:#d2dfa6;fill-opacity:1;stroke:#2d5275;stroke-width:0.140446;stroke-linecap:round;stroke-linejoin:round;stroke-dasharray:none;stroke-opacity:1;paint-order:markers stroke fill"
         d="m 203.0195,362.99547 c -3.15639,-0.8052 -6.81882,-3.91704 -8.30336,-7.05509 -1.2719,-2.68857 -1.11677,-2.9743 0.66947,-1.23304 1.83995,1.79362 4.02833,2.9406 8.10081,4.24582 1.63503,0.52403 3.94719,1.37594 5.13813,1.89314 l 2.16536,0.94037 -2.01672,0.62897 c -2.72275,0.84916 -4.13858,0.99184 -5.75369,0.57983 z"
         id="path7483"
         transform="scale(0.26458333)" /><g
         id="g7505"
         transform="translate(-13.818546,11.910111)"
         style="stroke:#2d5275;stroke-width:0.3;stroke-dasharray:none;stroke-opacity:1"><path
           style="fill:none;stroke:#2d5275;stroke-width:0.3;stroke-linecap:round;stroke-linejoin:round;stroke-dasharray:none;stroke-opacity:1;paint-order:markers stroke fill"
           d="m 68.114936,85.025687 c 0,0 -1.813181,0.430558 -2.63493,0.117983 -1.265053,-0.481197 -2.335522,-1.606159 -2.910224,-2.831568 -0.714653,-1.52382 -0.715832,-3.382018 -0.393274,-5.033899 0.325829,-1.668632 2.280987,-4.56197 2.280987,-4.56197 l 1.651746,-2.713585 3.893407,2.005692 c 0,0 2.867089,1.426793 4.050715,2.477622 1.298315,1.152651 2.719329,2.429114 3.22484,4.090043 0.348368,1.144614 0.203397,2.482267 -0.275291,3.578788 -0.285782,0.654636 -0.885245,1.142429 -1.455111,1.573094 -0.739007,0.558489 -2.477622,1.258475 -2.477622,1.258475"
           id="path7497"
           sodipodi:nodetypes="caaacccaaaac" /><path
           style="fill:none;stroke:#2d5275;stroke-width:0.3;stroke-dasharray:none;stroke-opacity:1"
           d="m 71.497086,89.98093 c -0.157308,0 -1.419408,-2.176535 -1.651749,-3.421478 -0.417425,-2.236672 0.550585,-6.803628 0.550585,-6.803628 0,0 -1.206419,0.07818 -1.651749,0.432602 -0.486322,0.387049 -0.818189,1.031986 -0.865201,1.651749 -0.03355,0.442313 0.432599,1.258475 0.432599,1.258475 l 1.455113,0.668562 c 0,0 1.919741,-0.157996 2.752913,-0.58991 0.823606,-0.426955 1.627749,-1.059157 2.04502,-1.887712 0.438874,-0.871453 0.638957,-1.989978 0.314619,-2.910221 -0.425213,-1.206456 -2.713585,-2.713585 -2.713585,-2.713585 l -2.084348,-1.179822 c 0,0 -1.701145,-1.206593 -2.202331,-2.084348 -0.233372,-0.408718 -0.314618,-1.376455 -0.314618,-1.376455 0,0 -0.450096,1.901718 -0.747221,2.831566 -0.520251,1.628118 -1.491524,3.11847 -1.809056,4.797935 -0.185103,0.979033 -0.276551,2.021149 -0.03933,2.988876 0.138246,0.563964 0.421834,1.116732 0.825876,1.533766 0.527248,0.544202 1.216085,1.034532 1.966364,1.140495 0.802788,0.113379 2.359642,-0.58991 2.359642,-0.58991"
           id="path7499"
           sodipodi:nodetypes="cacaaccaaaccacaaaaac" /><path
           style="fill:none;stroke:#2d5275;stroke-width:0.3;stroke-dasharray:none;stroke-opacity:1"
           d="m 65.003306,78.805222 c 0.07865,-0.196638 2.875666,-4.240605 2.875666,-4.240605 0,0 2.88405,1.832846 4.129368,2.988879 0.402257,0.373416 0.747671,0.808417 1.061839,1.258472 0.234672,0.336174 0.553345,0.662402 0.608994,1.068588 0.0694,0.506516 -0.143268,1.03098 -0.373033,1.487689 -0.404639,0.804311 -1.712137,2.089122 -1.712137,2.089122"
           id="path7501"
           sodipodi:nodetypes="ccaaaac" /><path
           style="fill:none;stroke:#2d5275;stroke-width:0.3;stroke-dasharray:none;stroke-opacity:1"
           d="m 70.041975,84.278469 c 1.92704,0.196636 2.695051,0.115035 3.81475,-0.511257 0.959544,-0.536711 1.747305,-1.509764 2.08435,-2.556275 0.330147,-1.025091 0.139354,-2.201652 -0.196638,-3.224842 -0.316509,-0.963859 -1.651746,-2.556277 -1.651746,-2.556277 l -2.320314,-2.988876 c 0,0 -2.724895,2.821464 -3.736097,4.483317 -0.421439,0.692611 -0.800426,1.443691 -0.943856,2.241656 -0.162488,0.903993 -0.236636,1.905652 0.117983,2.752912 0.21932,0.524002 1.161555,1.246957 1.161555,1.246957 0,0 -1.676752,-0.455839 -2.376749,-0.941879 -0.464908,-0.322807 -1.137698,-1.26045 -1.137698,-1.26045"
           id="path7503"
           sodipodi:nodetypes="caaaccaaacac" /></g><path
         style="fill:#c1d48a;fill-opacity:1;stroke:#2d5275;stroke-width:0.0993103;stroke-linecap:round;stroke-linejoin:round;stroke-dasharray:none;stroke-opacity:1;paint-order:markers stroke fill"
         d="m 220.75024,358.56043 c 3.91223,-4.119 5.85281,-7.70465 5.85281,-10.81438 0,-1.06229 -0.11953,-1.68218 -0.44963,-2.33192 -0.74589,-1.46813 -3.93288,-5.61031 -5.52808,-7.18493 -1.45368,-1.43492 -5.57315,-4.65949 -9.10498,-7.12704 l -1.73455,-1.21186 1.1984,-1.45673 c 0.65913,-0.8012 1.28311,-1.45673 1.38664,-1.45673 0.32848,0 7.93488,4.38355 9.27141,5.3431 0.70519,0.50628 2.19038,1.68141 3.30042,2.61139 4.93118,4.1313 6.453,7.10099 5.90151,11.51625 -0.26268,2.10302 -1.09233,4.69178 -2,6.2406 -1.36455,2.32843 -4.66017,5.13197 -7.59934,6.46465 -0.74756,0.33896 -1.42297,0.61629 -1.50091,0.61629 -0.0779,0 0.37489,-0.54391 1.0063,-1.20869 z"
         id="path7507"
         transform="scale(0.26458333)" /><path
         style="fill:#c1d48a;fill-opacity:1;stroke:#2d5275;stroke-width:0.0993103;stroke-linecap:round;stroke-linejoin:round;stroke-dasharray:none;stroke-opacity:1;paint-order:markers stroke fill"
         d="m 202.29249,357.6716 c -2.2186,-0.78924 -4.68775,-2.08833 -5.6578,-2.97674 -0.55048,-0.50415 -1.55295,-1.60863 -2.22771,-2.45441 l -1.22683,-1.53777 v -1.55524 c 0,-0.85539 0.10962,-2.51932 0.24361,-3.69763 l 0.24362,-2.14239 1.67754,-2.53893 c 1.19065,-1.80202 8.50255,-12.53489 9.0683,-13.31103 0.10752,-0.14751 3.79249,2.51775 3.77346,2.72926 -0.0128,0.1422 -0.66109,1.10988 -1.44065,2.1504 -4.45292,5.94354 -6.22382,10.71648 -6.23943,16.81655 -0.01,3.78076 0.62458,5.8101 2.45071,7.84119 1.06357,1.18294 0.98448,1.26345 -0.66482,0.67674 z"
         id="path7509"
         transform="scale(0.26458333)" /><path
         style="fill:#98b92e;fill-opacity:1;stroke:#2d5275;stroke-width:0.0993103;stroke-linecap:round;stroke-linejoin:round;stroke-dasharray:none;stroke-opacity:1;paint-order:markers stroke fill"
         d="m 212.19779,359.71657 c 0.27701,-2.59403 1.18698,-8.68736 1.66147,-11.12547 l 0.48369,-2.48543 h -0.92074 c -1.40074,0 -4.03112,0.59013 -5.25941,1.17994 -1.3121,0.63007 -2.4135,1.83641 -3.23012,3.53789 -1.1136,2.32029 -1.24372,3.88216 -0.50885,6.10783 0.31705,0.96022 -2.01853,-1.9315 -2.41423,-2.9891 -1.23406,-3.29834 -0.78234,-9.56156 0.97951,-13.58121 0.97332,-2.22062 2.74872,-5.19708 4.50676,-7.55559 l 1.68787,-2.26439 1.72027,1.20133 c 4.90922,3.42828 8.80497,6.58264 10.28012,8.32373 1.37935,1.62802 3.8472,4.99104 4.25546,5.79904 0.45653,0.90356 0.4537,2.78134 -0.006,4.14171 -0.95069,2.81177 -2.70929,5.25297 -7.23507,10.04334 -0.19626,0.20774 -4.41976,0.96402 -5.43696,0.97357 l -0.70382,0.007 z"
         id="path7511"
         transform="scale(0.26458333)" /><path
         style="fill:#d2dfa6;fill-opacity:1;stroke:#2d5275;stroke-width:0.0993103;stroke-linecap:round;stroke-linejoin:round;stroke-dasharray:none;stroke-opacity:1;paint-order:markers stroke fill"
         d="m 194.54523,339.79947 c 0.22922,-1.1041 1.22178,-3.62722 3.27778,-8.33223 2.2442,-5.13572 2.8922,-6.9615 4.18586,-11.79398 l 0.99914,-3.73228 0.23717,0.94593 c 0.13045,0.52027 0.44917,1.3716 0.70827,1.89187 0.59584,1.1964 3.52035,4.25709 5.78049,6.04966 0.95382,0.75649 1.73421,1.4342 1.73421,1.50601 0,0.18851 -2.31872,2.95467 -2.47673,2.95467 -0.0729,0 -1.15802,-0.678 -2.41129,-1.50666 -1.94995,-1.28931 -2.31961,-1.46368 -2.56245,-1.20869 -0.15607,0.16388 -2.38559,3.37225 -4.95448,7.1297 -3.32425,4.86228 -4.62668,6.61963 -4.51797,6.096 z"
         id="path7513"
         transform="scale(0.26458333)" /><path
         style="fill:#d2dfa6;fill-opacity:1;stroke:#2d5275;stroke-width:0.140446;stroke-linecap:round;stroke-linejoin:round;stroke-dasharray:none;stroke-opacity:1;paint-order:markers stroke fill"
         d="m 203.0195,362.99547 c -3.15639,-0.8052 -6.81882,-3.91704 -8.30336,-7.05509 -1.2719,-2.68857 -1.11677,-2.9743 0.66947,-1.23304 1.83995,1.79362 4.02833,2.9406 8.10081,4.24582 1.63503,0.52403 3.94719,1.37594 5.13813,1.89314 l 2.16536,0.94037 -2.01672,0.62897 c -2.72275,0.84916 -4.13858,0.99184 -5.75369,0.57983 z"
         id="path7515"
         transform="scale(0.26458333)" /><g
         id="g7525"
         transform="translate(-13.818546,11.910111)"
         style="stroke:#2d5275;stroke-width:0.3;stroke-dasharray:none;stroke-opacity:1"><path
           style="fill:none;stroke:#2d5275;stroke-width:0.3;stroke-linecap:round;stroke-linejoin:round;stroke-dasharray:none;stroke-opacity:1;paint-order:markers stroke fill"
           d="m 68.114936,85.025687 c 0,0 -1.813181,0.430558 -2.63493,0.117983 -1.265053,-0.481197 -2.335522,-1.606159 -2.910224,-2.831568 -0.714653,-1.52382 -0.715832,-3.382018 -0.393274,-5.033899 0.325829,-1.668632 2.280987,-4.56197 2.280987,-4.56197 l 1.651746,-2.713585 3.893407,2.005692 c 0,0 2.867089,1.426793 4.050715,2.477622 1.298315,1.152651 2.719329,2.429114 3.22484,4.090043 0.348368,1.144614 0.203397,2.482267 -0.275291,3.578788 -0.285782,0.654636 -0.885245,1.142429 -1.455111,1.573094 -0.739007,0.558489 -2.477622,1.258475 -2.477622,1.258475"
           id="path7517"
           sodipodi:nodetypes="caaacccaaaac" /><path
           style="fill:none;stroke:#2d5275;stroke-width:0.3;stroke-dasharray:none;stroke-opacity:1"
           d="m 71.497086,89.98093 c -0.157308,0 -1.419408,-2.176535 -1.651749,-3.421478 -0.417425,-2.236672 0.550585,-6.803628 0.550585,-6.803628 0,0 -1.206419,0.07818 -1.651749,0.432602 -0.486322,0.387049 -0.818189,1.031986 -0.865201,1.651749 -0.03355,0.442313 0.432599,1.258475 0.432599,1.258475 l 1.455113,0.668562 c 0,0 1.919741,-0.157996 2.752913,-0.58991 0.823606,-0.426955 1.627749,-1.059157 2.04502,-1.887712 0.438874,-0.871453 0.638957,-1.989978 0.314619,-2.910221 -0.425213,-1.206456 -2.713585,-2.713585 -2.713585,-2.713585 l -2.084348,-1.179822 c 0,0 -1.701145,-1.206593 -2.202331,-2.084348 -0.233372,-0.408718 -0.314618,-1.376455 -0.314618,-1.376455 0,0 -0.450096,1.901718 -0.747221,2.831566 -0.520251,1.628118 -1.491524,3.11847 -1.809056,4.797935 -0.185103,0.979033 -0.276551,2.021149 -0.03933,2.988876 0.138246,0.563964 0.421834,1.116732 0.825876,1.533766 0.527248,0.544202 1.216085,1.034532 1.966364,1.140495 0.802788,0.113379 2.359642,-0.58991 2.359642,-0.58991"
           id="path7519"
           sodipodi:nodetypes="cacaaccaaaccacaaaaac" /><path
           style="fill:none;stroke:#2d5275;stroke-width:0.3;stroke-dasharray:none;stroke-opacity:1"
           d="m 65.003306,78.805222 c 0.07865,-0.196638 2.875666,-4.240605 2.875666,-4.240605 0,0 2.88405,1.832846 4.129368,2.988879 0.402257,0.373416 0.747671,0.808417 1.061839,1.258472 0.234672,0.336174 0.553345,0.662402 0.608994,1.068588 0.0694,0.506516 -0.143268,1.03098 -0.373033,1.487689 -0.404639,0.804311 -1.712137,2.089122 -1.712137,2.089122"
           id="path7521"
           sodipodi:nodetypes="ccaaaac" /><path
           style="fill:none;stroke:#2d5275;stroke-width:0.3;stroke-dasharray:none;stroke-opacity:1"
           d="m 70.041975,84.278469 c 1.92704,0.196636 2.695051,0.115035 3.81475,-0.511257 0.959544,-0.536711 1.747305,-1.509764 2.08435,-2.556275 0.330147,-1.025091 0.139354,-2.201652 -0.196638,-3.224842 -0.316509,-0.963859 -1.651746,-2.556277 -1.651746,-2.556277 l -2.320314,-2.988876 c 0,0 -2.724895,2.821464 -3.736097,4.483317 -0.421439,0.692611 -0.800426,1.443691 -0.943856,2.241656 -0.162488,0.903993 -0.236636,1.905652 0.117983,2.752912 0.21932,0.524002 1.161555,1.246957 1.161555,1.246957 0,0 -1.676752,-0.455839 -2.376749,-0.941879 -0.464908,-0.322807 -1.137698,-1.26045 -1.137698,-1.26045"
           id="path7523"
           sodipodi:nodetypes="caaaccaaacac" /></g><path
         style="fill:#c1d48a;fill-opacity:1;stroke:#2d5275;stroke-width:0.0993103;stroke-linecap:round;stroke-linejoin:round;stroke-dasharray:none;stroke-opacity:1;paint-order:markers stroke fill"
         d="m 220.75024,358.56043 c 3.91223,-4.119 5.85281,-7.70465 5.85281,-10.81438 0,-1.06229 -0.11953,-1.68218 -0.44963,-2.33192 -0.74589,-1.46813 -3.93288,-5.61031 -5.52808,-7.18493 -1.45368,-1.43492 -5.57315,-4.65949 -9.10498,-7.12704 l -1.73455,-1.21186 1.1984,-1.45673 c 0.65913,-0.8012 1.28311,-1.45673 1.38664,-1.45673 0.32848,0 7.93488,4.38355 9.27141,5.3431 0.70519,0.50628 2.19038,1.68141 3.30042,2.61139 4.93118,4.1313 6.453,7.10099 5.90151,11.51625 -0.26268,2.10302 -1.09233,4.69178 -2,6.2406 -1.36455,2.32843 -4.66017,5.13197 -7.59934,6.46465 -0.74756,0.33896 -1.42297,0.61629 -1.50091,0.61629 -0.0779,0 0.37489,-0.54391 1.0063,-1.20869 z"
         id="path7527"
         transform="scale(0.26458333)" /><path
         style="fill:#c1d48a;fill-opacity:1;stroke:#2d5275;stroke-width:0.0993103;stroke-linecap:round;stroke-linejoin:round;stroke-dasharray:none;stroke-opacity:1;paint-order:markers stroke fill"
         d="m 202.29249,357.6716 c -2.2186,-0.78924 -4.68775,-2.08833 -5.6578,-2.97674 -0.55048,-0.50415 -1.55295,-1.60863 -2.22771,-2.45441 l -1.22683,-1.53777 v -1.55524 c 0,-0.85539 0.10962,-2.51932 0.24361,-3.69763 l 0.24362,-2.14239 1.67754,-2.53893 c 1.19065,-1.80202 8.50255,-12.53489 9.0683,-13.31103 0.10752,-0.14751 3.79249,2.51775 3.77346,2.72926 -0.0128,0.1422 -0.66109,1.10988 -1.44065,2.1504 -4.45292,5.94354 -6.22382,10.71648 -6.23943,16.81655 -0.01,3.78076 0.62458,5.8101 2.45071,7.84119 1.06357,1.18294 0.98448,1.26345 -0.66482,0.67674 z"
         id="path7529"
         transform="scale(0.26458333)" /><path
         style="fill:#98b92e;fill-opacity:1;stroke:#2d5275;stroke-width:0.0993103;stroke-linecap:round;stroke-linejoin:round;stroke-dasharray:none;stroke-opacity:1;paint-order:markers stroke fill"
         d="m 212.19779,359.71657 c 0.27701,-2.59403 1.18698,-8.68736 1.66147,-11.12547 l 0.48369,-2.48543 h -0.92074 c -1.40074,0 -4.03112,0.59013 -5.25941,1.17994 -1.3121,0.63007 -2.4135,1.83641 -3.23012,3.53789 -1.1136,2.32029 -1.24372,3.88216 -0.50885,6.10783 0.31705,0.96022 -2.01853,-1.9315 -2.41423,-2.9891 -1.23406,-3.29834 -0.78234,-9.56156 0.97951,-13.58121 0.97332,-2.22062 2.74872,-5.19708 4.50676,-7.55559 l 1.68787,-2.26439 1.72027,1.20133 c 4.90922,3.42828 8.80497,6.58264 10.28012,8.32373 1.37935,1.62802 3.8472,4.99104 4.25546,5.79904 0.45653,0.90356 0.4537,2.78134 -0.006,4.14171 -0.95069,2.81177 -2.70929,5.25297 -7.23507,10.04334 -0.19626,0.20774 -4.41976,0.96402 -5.43696,0.97357 l -0.70382,0.007 z"
         id="path7531"
         transform="scale(0.26458333)" /><path
         style="fill:#d2dfa6;fill-opacity:1;stroke:#2d5275;stroke-width:0.0993103;stroke-linecap:round;stroke-linejoin:round;stroke-dasharray:none;stroke-opacity:1;paint-order:markers stroke fill"
         d="m 194.54523,339.79947 c 0.22922,-1.1041 1.22178,-3.62722 3.27778,-8.33223 2.2442,-5.13572 2.8922,-6.9615 4.18586,-11.79398 l 0.99914,-3.73228 0.23717,0.94593 c 0.13045,0.52027 0.44917,1.3716 0.70827,1.89187 0.59584,1.1964 3.52035,4.25709 5.78049,6.04966 0.95382,0.75649 1.73421,1.4342 1.73421,1.50601 0,0.18851 -2.31872,2.95467 -2.47673,2.95467 -0.0729,0 -1.15802,-0.678 -2.41129,-1.50666 -1.94995,-1.28931 -2.31961,-1.46368 -2.56245,-1.20869 -0.15607,0.16388 -2.38559,3.37225 -4.95448,7.1297 -3.32425,4.86228 -4.62668,6.61963 -4.51797,6.096 z"
         id="path7533"
         transform="scale(0.26458333)" /><path
         style="fill:#d2dfa6;fill-opacity:1;stroke:#2d5275;stroke-width:0.140446;stroke-linecap:round;stroke-linejoin:round;stroke-dasharray:none;stroke-opacity:1;paint-order:markers stroke fill"
         d="m 203.0195,362.99547 c -3.15639,-0.8052 -6.81882,-3.91704 -8.30336,-7.05509 -1.2719,-2.68857 -1.11677,-2.9743 0.66947,-1.23304 1.83995,1.79362 4.02833,2.9406 8.10081,4.24582 1.63503,0.52403 3.94719,1.37594 5.13813,1.89314 l 2.16536,0.94037 -2.01672,0.62897 c -2.72275,0.84916 -4.13858,0.99184 -5.75369,0.57983 z"
         id="path7535"
         transform="scale(0.26458333)" /></g></g></svg>
